<?xml version="1.0" encoding="utf-8"?>
<!-- Generator: Adobe Illustrator 27.9.3, SVG Export Plug-In . SVG Version: 9.03 Build 53313)  -->
<svg version="1.1" id="Layer_1" xmlns="http://www.w3.org/2000/svg" xmlns:xlink="http://www.w3.org/1999/xlink" x="0px" y="0px"
	 viewBox="0 0 293.5 90.7" style="enable-background:new 0 0 293.5 90.7;" xml:space="preserve">
<style type="text/css">
	.st0{fill:#005C97;}
</style>
<g>
	<g>
		<g>
			<path class="st0" d="M98.5,19.1c0-5.8,4.2-10.1,10-10.1s10,4.3,10,10.1c0,5.8-4.2,10.1-10,10.1S98.5,24.9,98.5,19.1z M116.2,19.1
				c0-4.4-3.1-8-7.6-8s-7.6,3.6-7.6,8c0,4.4,3.1,8,7.6,8S116.2,23.6,116.2,19.1z"/>
			<path class="st0" d="M120.8,19c0-1.2-0.1-2.2-0.1-3h2c0,0.7,0.1,1.4,0.1,2.1h0.1c0.6-1.2,2.1-2.4,4.2-2.4c3.3,0,4.8,2.1,4.8,5.2
				v7.8h-2.1v-7.6c0-2.1-0.9-3.4-2.9-3.4c-2.7,0-3.9,2-3.9,4.9v6.2h-2.1V19z"/>
			<path class="st0" d="M142.3,17.8h-3.7v6.4c0,1.6,0,2.9,1.9,2.9c0.6,0,1.3-0.1,1.9-0.4l0.1,1.9c-0.7,0.3-1.7,0.5-2.5,0.5
				c-3,0-3.5-1.6-3.5-4.3v-7h-2.8V16h2.8v-3.6h2.1V16h3.7V17.8z"/>
			<path class="st0" d="M145.3,17.7c1.3-1.3,3.2-2,5.1-2c3.7,0,5.3,1.8,5.3,5.4v5.5c0,0.7,0.1,1.5,0.2,2.2h-2
				c-0.1-0.6-0.1-1.4-0.1-1.9h-0.1c-0.8,1.3-2.3,2.2-4.2,2.2c-2.6,0-4.7-1.3-4.7-3.8c0-4.2,4.9-4.5,8-4.5h0.8v-0.4
				c0-1.8-1.2-2.8-3.1-2.8c-1.4,0-2.8,0.5-3.8,1.4L145.3,17.7z M151.5,22.6c-2.7,0-4.4,0.7-4.4,2.4c0,1.6,1.2,2.2,2.8,2.2
				c2.4,0,3.7-1.8,3.7-3.8v-0.8H151.5z"/>
			<path class="st0" d="M158.5,19c0-1.2-0.1-2.2-0.1-3h2c0,0.7,0.1,1.4,0.1,2.1h0.1c0.6-1.2,2.1-2.4,4.2-2.4c0.3,0,0.6,0,0.9,0.1
				l-0.1,2.1c-0.4-0.1-0.8-0.2-1.1-0.2c-2.6,0-3.7,1.8-3.7,4.7v6.2h-2.1V19z"/>
			<path class="st0" d="M169.8,9.5c0.9,0,1.5,0.7,1.5,1.5c0,0.9-0.7,1.5-1.5,1.5c-0.9,0-1.5-0.7-1.5-1.5
				C168.3,10.2,169,9.5,169.8,9.5z M168.8,16h2.1v12.7h-2.1V16z"/>
			<path class="st0" d="M180.1,15.7c3.9,0,6.8,2.7,6.8,6.7c0,4-2.9,6.7-6.8,6.7c-3.9,0-6.8-2.7-6.8-6.7
				C173.3,18.4,176.2,15.7,180.1,15.7z M180.1,27.1c2.7,0,4.5-2.1,4.5-4.7c0-2.7-1.8-4.7-4.5-4.7c-2.7,0-4.5,2.1-4.5,4.7
				C175.6,25,177.3,27.1,180.1,27.1z"/>
		</g>
	</g>
	<g>
		<g>
			<path class="st0" d="M100.7,35.8h10.4c6,0,11.4,2.1,11.4,8.9c0,7.7-5.8,9.1-12.3,9.1h-3.9v12.7h-5.5V35.8z M109.5,49.2
				c3.1,0,7.2-0.2,7.2-4.3c0-3.8-3.6-4.3-6.6-4.3h-3.9v8.7H109.5z"/>
			<path class="st0" d="M125.1,45.7h5.2V49h0.1c1.1-2.4,3.4-3.8,6.2-3.8c0.7,0,1.3,0.1,1.9,0.3v5c-0.9-0.2-1.7-0.4-2.5-0.4
				c-4.9,0-5.6,4.1-5.6,5.3v11.2h-5.2V45.7z"/>
			<path class="st0" d="M144.6,35.5c1.9,0,3.4,1.3,3.4,3.1c0,1.8-1.5,3.1-3.4,3.1s-3.3-1.5-3.3-3.1C141.3,37,142.7,35.5,144.6,35.5z
				 M142.1,45.7h5.2v20.9h-5.2V45.7z"/>
			<path class="st0" d="M151.5,45.7h5v3.3h0.1c1-2.1,2.9-3.9,6.4-3.9c5.6,0,7.6,4,7.6,8.2v13.2h-5.2V56c0-2.3-0.2-6.1-3.8-6.1
				c-3.4,0-4.8,2.5-4.8,5.3v11.4h-5.2V45.7z"/>
			<path class="st0" d="M189,52c-1.2-1.3-2.6-2.1-4-2.1c-3.8,0-6.1,3-6.1,6.3c0,3.3,2.3,6.3,6.1,6.3c1.6,0,3.1-0.7,4-2l3.5,3.7
				c-2.1,2.1-5.7,2.9-7.5,2.9c-6.3,0-11.4-4.4-11.4-11s5-11,11.4-11c2.7,0,5.6,1,7.6,3.2L189,52z"/>
			<path class="st0" d="M197.5,35.5c1.9,0,3.4,1.3,3.4,3.1c0,1.8-1.5,3.1-3.4,3.1s-3.3-1.5-3.3-3.1C194.2,37,195.6,35.5,197.5,35.5z
				 M194.9,45.7h5.2v20.9h-5.2V45.7z"/>
			<path class="st0" d="M204.4,45.7h5v3.1h0.1c1.5-2.5,4.3-3.7,7.2-3.7c6.4,0,10.3,4.8,10.3,11s-4.1,11-10.1,11
				c-3.9,0-6-1.8-7.1-3.2h-0.1v12.6h-5.2V45.7z M215.6,49.9c-3.8,0-6.1,3-6.1,6.3c0,3.3,2.3,6.3,6.1,6.3s6.1-3,6.1-6.3
				C221.7,52.9,219.4,49.9,215.6,49.9z"/>
			<path class="st0" d="M244,63.7h-0.1c-1.5,2.3-3.9,3.4-6.7,3.4c-3.9,0-7.6-2.1-7.6-6.3c0-6.8,7.9-7.3,13.1-7.3h1.3V53
				c0-2.6-2-3.9-4.8-3.9c-2.2,0-4.2,0.9-5.6,2.2l-2.7-2.7c2.3-2.3,5.6-3.3,8.9-3.3c8.9,0,8.9,6.4,8.9,9.4v12H244V63.7z M243.7,57.3
				h-1.1c-2.9,0-7.8,0.2-7.8,3.2c0,1.9,2,2.7,3.7,2.7c3.6,0,5.3-1.9,5.3-4.8V57.3z"/>
			<path class="st0" d="M252.6,33.7h5.2v32.9h-5.2V33.7z"/>
			<path class="st0" d="M274.1,51.5c-1-1.4-2.3-2.1-4.1-2.1c-1.4,0-3,0.7-3,2.2c0,3.7,11.3,0.7,11.3,8.8c0,5-4.7,6.7-9,6.7
				c-3.2,0-6-0.8-8.1-3.2l3.5-3.3c1.3,1.5,2.7,2.6,5,2.6c1.5,0,3.5-0.7,3.5-2.4c0-4.3-11.3-0.9-11.3-8.9c0-4.7,4.2-6.7,8.4-6.7
				c2.8,0,5.7,0.9,7.4,3.2L274.1,51.5z"/>
			<path class="st0" d="M283,46H280l2.9-10.2h3.5L283,46z"/>
		</g>
	</g>
	<g>
		<g>
			<path class="st0" d="M229.3,77.3c-0.8-1-2-1.6-3.2-1.6c-2.9,0-4.9,2.5-4.9,5.4c0,3,2,5.4,4.9,5.4c1.6,0,2.8-0.6,3.7-1.8l1.1,1
				c-1.1,1.5-2.8,2.3-4.9,2.3c-3.7,0-6.6-2.9-6.6-6.8c0-3.8,2.7-6.8,6.6-6.8c1.7,0,3.5,0.6,4.6,2L229.3,77.3z"/>
			<path class="st0" d="M236.9,78.8c2.6,0,4.6,1.8,4.6,4.5c0,2.7-1.9,4.5-4.6,4.5c-2.6,0-4.6-1.8-4.6-4.5
				C232.3,80.6,234.3,78.8,236.9,78.8z M236.9,86.4c1.8,0,3-1.4,3-3.2c0-1.8-1.2-3.2-3-3.2c-1.8,0-3,1.4-3,3.2
				C233.9,85.1,235.1,86.4,236.9,86.4z"/>
			<path class="st0" d="M250.4,85.5c0,0.8,0.1,1.5,0.1,2h-1.3c0-0.5,0-0.9,0-1.4h0c-0.4,0.8-1.4,1.6-2.8,1.6c-2.2,0-3.2-1.4-3.2-3.5
				V79h1.4v5.1c0,1.4,0.6,2.3,2,2.3c1.8,0,2.6-1.3,2.6-3.3V79h1.4V85.5z"/>
			<path class="st0" d="M252.7,81c0-0.8-0.1-1.5-0.1-2h1.3c0,0.5,0,0.9,0,1.4h0c0.4-0.8,1.4-1.6,2.8-1.6c2.2,0,3.2,1.4,3.2,3.5v5.3
				h-1.4v-5.1c0-1.4-0.6-2.3-1.9-2.3c-1.8,0-2.6,1.3-2.6,3.3v4.2h-1.4V81z"/>
			<path class="st0" d="M268.9,81.1c-0.6-0.7-1.3-1-2.2-1c-1.9,0-2.9,1.4-2.9,3.2s1.1,3.2,2.9,3.2c0.9,0,1.6-0.3,2.2-1.1l1.1,1
				c-0.8,0.9-2,1.4-3.2,1.4c-2.6,0-4.4-1.9-4.4-4.5c0-2.6,1.8-4.5,4.4-4.5c1.3,0,2.4,0.4,3.3,1.3L268.9,81.1z"/>
			<path class="st0" d="M272.5,74.6c0.6,0,1,0.5,1,1c0,0.6-0.4,1-1,1c-0.6,0-1-0.4-1-1C271.4,75.1,271.9,74.6,272.5,74.6z M271.8,79
				h1.4v8.5h-1.4V79z"/>
			<path class="st0" d="M275.8,73.8h1.4v13.8h-1.4V73.8z"/>
		</g>
	</g>
	<g>
		<path class="st0" d="M48,41c1.8-0.6,3.2-1.7,4.2-3.2c1-1.5,1.5-3.3,1.5-5.4c0-3.7-1.4-6.4-4.3-8.1c-2.1-1.3-5.9-1.9-11.5-1.9h-5.1
			V42h5.8C43.1,42,46.2,41.7,48,41z"/>
		<path class="st0" d="M0.8,45.5c0,12.7,5.3,24.1,13.9,32.1V13.4C6.1,21.4,0.8,32.8,0.8,45.5z"/>
		<path class="st0" d="M44.9,1.3c-5.7,0-11.1,1.1-16.1,3.1c10.9-1.3,17.3-1.1,24.8,1.4c6.1,2,10.6,5.8,13.6,11.2
			c2.5,4.4,4,9.4,4,15.4c0,6.6-1.7,12.2-5.2,16.6c-3.5,4.4-8.2,7.5-14.1,9.2c-3.5,1-9.9,1.5-19.1,1.5v28.3c3.9,1.1,7.9,1.7,12.1,1.7
			C69.3,89.6,89,69.9,89,45.5C89,21.1,69.3,1.3,44.9,1.3z"/>
	</g>
	<g>
		<path class="st0" d="M280.8,84.5c0-1.8,1.3-3,2.9-3c1.6,0,2.9,1.2,2.9,3s-1.3,3-2.9,3C282.1,87.5,280.8,86.3,280.8,84.5z
			 M285.9,84.5c0-1.4-1-2.4-2.3-2.4c-1.3,0-2.2,1-2.2,2.4c0,1.4,1,2.4,2.2,2.4C284.9,87,285.9,86,285.9,84.5z M282.5,83h1.2
			c0.6,0,1.2,0.3,1.2,1c0,0.4-0.2,0.7-0.6,0.8L285,86h-0.7l-0.5-1.1h-0.6V86h-0.6V83z M283.5,84.5c0.4,0,0.7-0.2,0.7-0.5
			c0-0.3-0.2-0.5-0.6-0.5h-0.4v1H283.5z"/>
	</g>
	<g>
		<path class="st0" d="M100.5,79.8h5.2v1.3h-3.8V83h3.6v1.3h-3.6v2.1h4v1.3h-5.4V79.8z"/>
		<path class="st0" d="M110,83.8c-0.3-0.4-0.6-0.5-1-0.5c-0.2,0-0.4,0-0.5,0.1c-0.2,0.1-0.3,0.2-0.3,0.4c0,0.2,0.1,0.3,0.2,0.4
			c0.1,0.1,0.3,0.1,0.5,0.2c0.2,0.1,0.4,0.1,0.7,0.2c0.2,0.1,0.5,0.1,0.7,0.3c0.2,0.1,0.4,0.3,0.5,0.5c0.1,0.2,0.2,0.5,0.2,0.8
			c0,0.3-0.1,0.6-0.2,0.8c-0.1,0.2-0.3,0.4-0.5,0.5c-0.2,0.1-0.5,0.2-0.7,0.3c-0.3,0.1-0.5,0.1-0.8,0.1c-0.4,0-0.8-0.1-1.1-0.2
			s-0.7-0.3-0.9-0.6l0.9-0.8c0.2,0.2,0.4,0.3,0.5,0.5c0.2,0.1,0.4,0.2,0.7,0.2c0.1,0,0.2,0,0.3,0c0.1,0,0.2-0.1,0.3-0.1
			c0.1-0.1,0.2-0.1,0.2-0.2c0.1-0.1,0.1-0.2,0.1-0.3c0-0.2-0.1-0.3-0.2-0.4c-0.1-0.1-0.3-0.2-0.5-0.2c-0.2-0.1-0.4-0.1-0.7-0.2
			c-0.2,0-0.5-0.1-0.7-0.2c-0.2-0.1-0.4-0.3-0.5-0.4c-0.1-0.2-0.2-0.5-0.2-0.8c0-0.3,0.1-0.6,0.2-0.8c0.1-0.2,0.3-0.4,0.5-0.5
			c0.2-0.1,0.4-0.2,0.7-0.3c0.3-0.1,0.5-0.1,0.8-0.1c0.4,0,0.7,0.1,1.1,0.2c0.3,0.1,0.6,0.3,0.8,0.6L110,83.8z"/>
		<path class="st0" d="M111.4,83.5v-1.1h1.1v-1.5h1.3v1.5h1.5v1.1h-1.5v2.3c0,0.3,0,0.5,0.1,0.6c0.1,0.2,0.3,0.2,0.6,0.2
			c0.1,0,0.2,0,0.4,0c0.1,0,0.3-0.1,0.3-0.1v1.1c-0.1,0.1-0.3,0.1-0.5,0.1c-0.2,0-0.4,0-0.5,0c-0.4,0-0.6,0-0.9-0.1
			c-0.2-0.1-0.4-0.2-0.5-0.4c-0.1-0.2-0.2-0.4-0.3-0.6c0-0.2-0.1-0.5-0.1-0.8v-2.4H111.4z"/>
		<path class="st0" d="M116.4,86.9c0-0.2,0.1-0.4,0.3-0.6c0.2-0.2,0.4-0.3,0.6-0.3c0.2,0,0.4,0.1,0.6,0.2c0.2,0.2,0.3,0.4,0.3,0.6
			s-0.1,0.4-0.3,0.6c-0.2,0.2-0.4,0.3-0.6,0.3c-0.1,0-0.2,0-0.3-0.1c-0.1,0-0.2-0.1-0.3-0.2c-0.1-0.1-0.1-0.2-0.2-0.3
			C116.4,87.2,116.4,87,116.4,86.9z"/>
		<path class="st0" d="M124.3,81.4l-1.5,1.4l-0.8-0.9l2.4-2h1.2v7.9h-1.3V81.4z"/>
		<path class="st0" d="M128.7,87.7l1.9-2.9l0,0c-0.1,0-0.2,0.1-0.3,0.1c-0.1,0-0.3,0-0.4,0c-0.3,0-0.7-0.1-1-0.2
			c-0.3-0.1-0.5-0.3-0.7-0.5c-0.2-0.2-0.4-0.5-0.5-0.8c-0.1-0.3-0.2-0.6-0.2-1c0-0.4,0.1-0.8,0.2-1.1c0.1-0.3,0.3-0.6,0.6-0.8
			c0.2-0.2,0.5-0.4,0.9-0.5c0.3-0.1,0.7-0.2,1.1-0.2c0.4,0,0.8,0.1,1.1,0.2c0.3,0.1,0.6,0.3,0.9,0.5c0.2,0.2,0.4,0.5,0.6,0.8
			c0.1,0.3,0.2,0.7,0.2,1.1c0,0.4-0.1,0.8-0.2,1.1c-0.1,0.3-0.3,0.7-0.5,1l-2,3.2H128.7z M131.7,82.4c0-0.2,0-0.4-0.1-0.6
			c-0.1-0.2-0.2-0.3-0.3-0.5c-0.1-0.1-0.3-0.2-0.5-0.3c-0.2-0.1-0.4-0.1-0.6-0.1c-0.2,0-0.4,0-0.6,0.1c-0.2,0.1-0.3,0.2-0.5,0.3
			c-0.1,0.1-0.2,0.3-0.3,0.5c-0.1,0.2-0.1,0.4-0.1,0.6c0,0.2,0,0.4,0.1,0.6c0.1,0.2,0.2,0.3,0.3,0.5c0.1,0.1,0.3,0.2,0.5,0.3
			s0.4,0.1,0.6,0.1c0.2,0,0.4,0,0.6-0.1c0.2-0.1,0.3-0.2,0.5-0.3c0.1-0.1,0.2-0.3,0.3-0.5C131.6,82.8,131.7,82.6,131.7,82.4z"/>
		<path class="st0" d="M135.3,87.7l1.9-2.9l0,0c-0.1,0-0.2,0.1-0.3,0.1c-0.1,0-0.3,0-0.4,0c-0.3,0-0.7-0.1-1-0.2
			c-0.3-0.1-0.5-0.3-0.7-0.5c-0.2-0.2-0.4-0.5-0.5-0.8c-0.1-0.3-0.2-0.6-0.2-1c0-0.4,0.1-0.8,0.2-1.1c0.1-0.3,0.3-0.6,0.6-0.8
			c0.2-0.2,0.5-0.4,0.9-0.5c0.3-0.1,0.7-0.2,1.1-0.2c0.4,0,0.8,0.1,1.1,0.2c0.3,0.1,0.6,0.3,0.9,0.5c0.2,0.2,0.4,0.5,0.6,0.8
			c0.1,0.3,0.2,0.7,0.2,1.1c0,0.4-0.1,0.8-0.2,1.1c-0.1,0.3-0.3,0.7-0.5,1l-2,3.2H135.3z M138.2,82.4c0-0.2,0-0.4-0.1-0.6
			c-0.1-0.2-0.2-0.3-0.3-0.5c-0.1-0.1-0.3-0.2-0.5-0.3c-0.2-0.1-0.4-0.1-0.6-0.1c-0.2,0-0.4,0-0.6,0.1c-0.2,0.1-0.3,0.2-0.5,0.3
			c-0.1,0.1-0.2,0.3-0.3,0.5c-0.1,0.2-0.1,0.4-0.1,0.6c0,0.2,0,0.4,0.1,0.6c0.1,0.2,0.2,0.3,0.3,0.5c0.1,0.1,0.3,0.2,0.5,0.3
			c0.2,0.1,0.4,0.1,0.6,0.1c0.2,0,0.4,0,0.6-0.1c0.2-0.1,0.3-0.2,0.5-0.3c0.1-0.1,0.2-0.3,0.3-0.5C138.2,82.8,138.2,82.6,138.2,82.4
			z"/>
		<path class="st0" d="M143.4,79.7c0.3,0,0.6,0,0.9,0.1c0.3,0.1,0.5,0.2,0.8,0.4c0.2,0.2,0.4,0.4,0.5,0.6c0.1,0.3,0.2,0.5,0.2,0.9
			c0,0.4-0.1,0.8-0.3,1.1c-0.2,0.3-0.5,0.5-0.9,0.7v0c0.2,0,0.4,0.1,0.5,0.2c0.2,0.1,0.3,0.3,0.5,0.4c0.1,0.2,0.2,0.4,0.3,0.6
			c0.1,0.2,0.1,0.4,0.1,0.7c0,0.4-0.1,0.7-0.2,1c-0.1,0.3-0.3,0.5-0.6,0.7c-0.2,0.2-0.5,0.3-0.8,0.4s-0.7,0.2-1,0.2
			c-0.4,0-0.7-0.1-1-0.2c-0.3-0.1-0.6-0.2-0.8-0.4c-0.2-0.2-0.4-0.4-0.6-0.7c-0.1-0.3-0.2-0.6-0.2-1c0-0.2,0-0.5,0.1-0.7
			c0.1-0.2,0.2-0.4,0.3-0.6c0.1-0.2,0.3-0.3,0.5-0.4c0.2-0.1,0.4-0.2,0.5-0.2v0c-0.4-0.1-0.7-0.3-0.9-0.7c-0.2-0.3-0.3-0.7-0.3-1.1
			c0-0.3,0.1-0.6,0.2-0.9c0.1-0.3,0.3-0.5,0.5-0.6c0.2-0.2,0.5-0.3,0.8-0.4C142.8,79.8,143.1,79.7,143.4,79.7z M143.4,84.1
			c-0.2,0-0.3,0-0.5,0.1c-0.2,0.1-0.3,0.1-0.4,0.3c-0.1,0.1-0.2,0.2-0.3,0.4c-0.1,0.2-0.1,0.3-0.1,0.5c0,0.4,0.1,0.7,0.4,0.9
			c0.2,0.2,0.6,0.3,0.9,0.3c0.4,0,0.7-0.1,0.9-0.3c0.2-0.2,0.4-0.5,0.4-0.9c0-0.2,0-0.3-0.1-0.5c-0.1-0.2-0.2-0.3-0.3-0.4
			c-0.1-0.1-0.3-0.2-0.4-0.3C143.8,84.1,143.6,84.1,143.4,84.1z M143.4,80.8c-0.3,0-0.6,0.1-0.8,0.3c-0.2,0.2-0.3,0.5-0.3,0.8
			c0,0.3,0.1,0.6,0.3,0.8c0.2,0.2,0.5,0.3,0.8,0.3c0.1,0,0.3,0,0.4-0.1c0.1-0.1,0.2-0.1,0.3-0.2c0.1-0.1,0.2-0.2,0.2-0.3
			c0.1-0.1,0.1-0.3,0.1-0.4c0-0.3-0.1-0.5-0.3-0.8C144,80.9,143.7,80.8,143.4,80.8z"/>
	</g>
</g>
</svg>
